<svg xmlns="http://www.w3.org/2000/svg" width="145.523" height="46.798" viewBox="0 0 145.523 46.798"><defs><style>.a{fill:#80367a;}.b{fill:#c21765;}.c{fill:#650932;}.d{fill:#ce3e7e;}.e{fill:#da699a;}.f{fill:#e697b8;}</style></defs><g transform="translate(0.003)"><g transform="translate(49.004)"><path class="a" d="M203.121,58.3a10.025,10.025,0,0,1-.473,2.9,8.67,8.67,0,0,1-1.531,2.888,8.532,8.532,0,0,1-2.763,2.228,8.812,8.812,0,0,1-4.145.9H182.533a10,10,0,0,1-2.9-.473,8.654,8.654,0,0,1-2.888-1.531,8.529,8.529,0,0,1-2.228-2.763,8.815,8.815,0,0,1-.9-4.145,10.128,10.128,0,0,1,.473-2.913,8.641,8.641,0,0,1,1.531-2.9,8.537,8.537,0,0,1,2.763-2.228,8.815,8.815,0,0,1,4.144-.9H196.36a3.074,3.074,0,0,1,3.074,3.075v.025a3.074,3.074,0,0,1-3.075,3.074H182.533a2.593,2.593,0,0,0-2.041.809,2.9,2.9,0,0,0-.722,2,2.457,2.457,0,0,0,.834,1.979,2.957,2.957,0,0,0,1.979.709h11.625a2.614,2.614,0,0,0,2.041-.8,2.855,2.855,0,0,0,.722-1.992V49.218a2.653,2.653,0,0,0-.784-2.017,2.754,2.754,0,0,0-1.979-.747h-11.14a3.074,3.074,0,0,1-3.074-3.074h0a3.074,3.074,0,0,1,3.074-3.074h11.14a10.021,10.021,0,0,1,2.9.473A8.669,8.669,0,0,1,200,42.31a8.547,8.547,0,0,1,2.228,2.763,8.818,8.818,0,0,1,.9,4.145Z" transform="translate(-173.617 -28.93)"/><path class="a" d="M304.73,44.02a2.888,2.888,0,0,1-2.888,2.888h0a10.394,10.394,0,0,1-2.975-.473,8.775,8.775,0,0,1-2.95-1.556,8.51,8.51,0,0,1-2.266-2.813,9.148,9.148,0,0,1-.9-4.244V3.041A2.888,2.888,0,0,1,295.644.153h.7a2.888,2.888,0,0,1,2.888,2.888v34.78a2.5,2.5,0,0,0,.747,1.9,2.606,2.606,0,0,0,1.867.709h0a2.888,2.888,0,0,1,2.888,2.888Z" transform="translate(-259.129 -0.11)"/><path class="a" d="M337.351,67.217h-.622a2.925,2.925,0,0,1-2.925-2.925V43.231a2.925,2.925,0,0,1,2.925-2.925h.622a2.925,2.925,0,0,1,2.925,2.925v21.06a2.925,2.925,0,0,1-2.925,2.926Z" transform="translate(-288.591 -28.93)"/><path class="a" d="M386.844,43.542a3.236,3.236,0,0,1-3.236,3.236h-2.083a2.733,2.733,0,0,0-1.992.659,2.586,2.586,0,0,0-.672,1.93V63.98a3.236,3.236,0,0,1-3.236,3.236h0a3.236,3.236,0,0,1-3.236-3.236V49.368a9.755,9.755,0,0,1,.423-2.987,8.543,8.543,0,0,1,1.133-2.328,7.843,7.843,0,0,1,1.63-1.718,9.434,9.434,0,0,1,1.93-1.158,9.941,9.941,0,0,1,2.041-.66,9.686,9.686,0,0,1,1.929-.211h2.133a3.236,3.236,0,0,1,3.236,3.236Z" transform="translate(-316.284 -28.93)"/><path class="a" d="M440.53,58.3a10.006,10.006,0,0,1-.473,2.9,8.667,8.667,0,0,1-1.531,2.888,8.539,8.539,0,0,1-2.763,2.228,8.812,8.812,0,0,1-4.145.9H419.943a10,10,0,0,1-2.9-.473,8.657,8.657,0,0,1-2.888-1.531,8.535,8.535,0,0,1-2.228-2.763,8.809,8.809,0,0,1-.9-4.145,10.131,10.131,0,0,1,.473-2.913,8.641,8.641,0,0,1,1.531-2.9,8.536,8.536,0,0,1,2.763-2.228,8.815,8.815,0,0,1,4.145-.9h14.426a3.074,3.074,0,0,1,3.074,3.075v.024a3.074,3.074,0,0,1-3.074,3.074H419.943a2.594,2.594,0,0,0-2.041.809,2.9,2.9,0,0,0-.722,2,2.459,2.459,0,0,0,.834,1.979,2.958,2.958,0,0,0,1.979.709h11.625a2.614,2.614,0,0,0,2.041-.8,2.856,2.856,0,0,0,.722-1.992V49.218A2.653,2.653,0,0,0,433.6,47.2a2.755,2.755,0,0,0-1.979-.747h-11.14A3.074,3.074,0,0,1,417.4,43.38h0a3.074,3.074,0,0,1,3.074-3.074h11.14a10.022,10.022,0,0,1,2.9.473A8.674,8.674,0,0,1,437.4,42.31a8.553,8.553,0,0,1,2.228,2.763,8.818,8.818,0,0,1,.9,4.145Z" transform="translate(-344.018 -28.93)"/><rect class="b" width="6.472" height="5.85" rx="2.925" transform="translate(45.213)"/></g><g transform="translate(0 4.429)"><path class="c" d="M43.665,49.21,29.083,22.534c-2.807-5.134-10.89-5.134-13.7,0L.8,49.21c-2.489,4.559,1.117,9.89,6.7,9.99a7.5,7.5,0,0,0,6.191-3.29H30.9a7.5,7.5,0,0,0,6.129,3.29C42.576,59.064,46.148,53.753,43.665,49.21Z" transform="translate(0 -17.839)"/><path class="b" d="M43.665,46.22,29.083,19.544c-2.807-5.134-10.89-5.134-13.7,0L.8,46.22c-2.492,4.559,1.114,9.892,6.693,9.99a7.5,7.5,0,0,0,6.191-3.29H30.9a7.5,7.5,0,0,0,6.134,3.288C42.576,56.075,46.148,50.763,43.665,46.22Z" transform="translate(0 -15.693)"/><path class="c" d="M42.254,43.925l-10.307,19.1A3.012,3.012,0,0,0,34.6,67.469H55.211a3.012,3.012,0,0,0,2.651-4.442l-10.307-19.1a3.012,3.012,0,0,0-5.3,0Z" transform="translate(-22.67 -34.822)"/><path class="d" d="M42.254,40.936l-10.307,19.1A3.012,3.012,0,0,0,34.6,64.479H55.211a3.012,3.012,0,0,0,2.651-4.442l-10.307-19.1a3.012,3.012,0,0,0-5.3,0Z" transform="translate(-22.67 -32.676)"/><path class="c" d="M59.383,69.174,53.911,79.316a1.6,1.6,0,0,0,1.407,2.359H66.263a1.6,1.6,0,0,0,1.407-2.359L62.2,69.174a1.6,1.6,0,0,0-2.815,0Z" transform="translate(-38.557 -53.476)"/><path class="e" d="M59.383,66.184,53.911,76.326a1.6,1.6,0,0,0,1.407,2.359H66.263a1.6,1.6,0,0,0,1.407-2.359L62.2,66.184a1.6,1.6,0,0,0-2.815,0Z" transform="translate(-38.557 -51.33)"/><path class="c" d="M71.182,86.564l-2.143,3.971a.626.626,0,0,0,.551.923h4.285a.626.626,0,0,0,.551-.923l-2.143-3.971a.626.626,0,0,0-1.1,0Z" transform="translate(-49.499 -66.325)"/><path class="f" d="M71.182,83.575l-2.143,3.971a.626.626,0,0,0,.551.923h4.285a.626.626,0,0,0,.551-.923l-2.143-3.971a.626.626,0,0,0-1.1,0Z" transform="translate(-49.499 -64.179)"/></g></g></svg>